<svg width="359" height="182" viewBox="0 0 359 182" fill="none" xmlns="http://www.w3.org/2000/svg">
<rect width="359" height="182" rx="91" fill="#F5F5F5"/>
<mask id="mask0_1_16" style="mask-type:luminance" maskUnits="userSpaceOnUse" x="69" y="30" width="220" height="122">
<path d="M69 30H288.517V152H69V30Z" fill="white"/>
</mask>
<g mask="url(#mask0_1_16)">
<path fill-rule="evenodd" clip-rule="evenodd" d="M266.418 91.0087L221.117 136.314C217.583 139.848 217.575 145.646 221.146 149.219C224.744 152.815 230.496 152.805 234.052 149.249L285.854 97.4474C287.615 95.6858 288.5 93.3609 288.502 91.0293C288.518 88.6635 287.626 86.3454 285.854 84.572L234.052 32.77C230.518 29.2366 224.718 29.2281 221.146 32.8006C217.549 36.3969 217.561 42.1497 221.117 45.7051L266.418 91.0087ZM91.1213 91.0087L136.427 45.7075C139.96 42.1741 139.969 36.3736 136.396 32.8029C132.8 29.2049 127.047 29.2168 123.492 32.7723L71.6896 84.5744C69.928 86.336 69.043 88.6609 69.0396 90.9924C69.0242 93.3582 69.9161 95.6764 71.6896 97.4497L123.492 149.252C127.025 152.783 132.824 152.794 136.396 149.221C139.993 145.625 139.982 139.872 136.427 136.317L91.1213 91.0087Z" fill="black"/>
</g>
</svg>
