<svg width="714" height="661" viewBox="0 0 714 661" fill="none" xmlns="http://www.w3.org/2000/svg">
<path d="M601 105.994C605.117 105.994 608.455 102.639 608.455 98.5001C608.455 94.3614 605.117 91.0063 601 91.0063C596.883 91.0063 593.546 94.3614 593.546 98.5001C593.546 102.639 596.883 105.994 601 105.994Z" fill="#61DAFB"/>
<path d="M601 113.853C623.091 113.853 641 106.979 641 98.5001C641 90.0208 623.091 83.147 601 83.147C578.909 83.147 561 90.0208 561 98.5001C561 106.979 578.909 113.853 601 113.853Z" stroke="#61DAFB" stroke-width="5"/>
<path d="M587.773 106.177C598.819 125.409 613.695 137.563 621 133.323C628.305 129.084 625.272 110.056 614.227 90.8234C603.181 71.591 588.305 59.4369 581 63.6766C573.695 67.9162 576.728 86.9441 587.773 106.177Z" stroke="#61DAFB" stroke-width="5"/>
<path d="M587.773 90.8233C576.728 110.056 573.695 129.084 581 133.323C588.305 137.563 603.181 125.409 614.227 106.176C625.272 86.944 628.305 67.9161 621 63.6765C613.695 59.4368 598.819 71.5909 587.773 90.8233Z" stroke="#61DAFB" stroke-width="5"/>
<circle cx="367.5" cy="330.5" r="329.5" stroke="#A7CEFC" stroke-width="2" stroke-dasharray="15 15"/>
<circle cx="367.5" cy="330.5" r="192.5" stroke="#A7CEFC" stroke-width="2" stroke-dasharray="15 15"/>
<path d="M342.391 91.9388C344.576 90.6899 347.424 90.6842 349.608 91.9388C360.595 98.1363 371.587 104.324 382.572 110.525C384.639 111.687 386.021 113.983 386 116.359V153.646C386.015 156.121 384.496 158.471 382.316 159.606C371.365 165.77 360.419 171.941 349.469 178.104C347.238 179.377 344.334 179.279 342.172 177.901C338.889 176.001 335.6 174.111 332.316 172.213C331.645 171.814 330.889 171.496 330.415 170.846C330.834 170.283 331.583 170.213 332.192 169.967C333.562 169.532 334.821 168.833 336.08 168.156C336.398 167.938 336.787 168.022 337.092 168.216C339.9 169.823 342.683 171.477 345.5 173.068C346.1 173.415 346.709 172.955 347.223 172.669C357.97 166.606 368.73 160.566 379.475 154.501C379.873 154.31 380.093 153.888 380.061 153.452C380.068 141.153 380.062 128.85 380.064 116.55C380.11 116.056 379.823 115.602 379.376 115.4C368.462 109.265 357.554 103.121 346.643 96.9839C346.454 96.8541 346.23 96.7845 346 96.7842C345.771 96.7839 345.547 96.8528 345.357 96.982C334.446 103.121 323.539 109.271 312.628 115.405C312.182 115.608 311.883 116.055 311.936 116.55C311.938 128.85 311.936 141.153 311.936 153.454C311.917 153.667 311.964 153.88 312.07 154.065C312.176 154.25 312.336 154.398 312.529 154.49C315.441 156.138 318.357 157.774 321.27 159.417C322.912 160.299 324.927 160.823 326.736 160.147C328.332 159.576 329.45 157.95 329.42 156.259C329.435 144.031 329.412 131.801 329.431 119.574C329.391 119.031 329.907 118.583 330.436 118.634C331.835 118.625 333.236 118.615 334.635 118.638C335.219 118.625 335.621 119.209 335.549 119.756C335.543 132.062 335.564 144.368 335.539 156.673C335.543 159.953 334.193 163.521 331.154 165.126C327.411 167.062 322.783 166.651 319.084 164.795C315.882 163.2 312.827 161.317 309.682 159.608C307.496 158.479 305.985 156.119 306 153.646V116.359C305.977 113.933 307.414 111.596 309.545 110.451C320.495 104.283 331.443 98.11 342.391 91.9388Z" fill="#8CC84B"/>
<path d="M351.943 117.767C356.719 117.46 361.831 117.586 366.129 119.934C369.456 121.734 371.3 125.511 371.359 129.2C371.266 129.698 370.745 129.973 370.269 129.938C368.883 129.937 367.497 129.957 366.112 129.929C365.524 129.952 365.183 129.411 365.109 128.892C364.711 127.126 363.746 125.378 362.081 124.526C359.526 123.249 356.563 123.313 353.776 123.34C351.742 123.448 349.555 123.624 347.831 124.818C346.508 125.722 346.106 127.548 346.578 129.019C347.024 130.075 348.245 130.415 349.244 130.73C354.999 132.232 361.098 132.083 366.743 134.06C369.08 134.866 371.367 136.433 372.167 138.876C373.213 142.15 372.754 146.063 370.421 148.691C368.529 150.854 365.772 152.031 363.024 152.671C359.367 153.485 355.572 153.505 351.858 153.144C348.366 152.747 344.732 151.831 342.036 149.456C339.731 147.458 338.605 144.345 338.717 141.34C338.743 140.832 339.249 140.479 339.736 140.52C341.132 140.509 342.527 140.505 343.922 140.522C344.48 140.482 344.893 140.963 344.921 141.487C345.179 143.17 345.812 144.935 347.282 145.932C350.117 147.759 353.676 147.634 356.923 147.685C359.613 147.566 362.633 147.529 364.828 145.755C365.987 144.742 366.33 143.049 366.017 141.592C365.678 140.361 364.388 139.788 363.281 139.413C357.6 137.619 351.433 138.27 345.807 136.242C343.522 135.436 341.313 133.912 340.436 131.57C339.211 128.254 339.772 124.154 342.351 121.614C344.864 119.088 348.493 118.115 351.943 117.767V117.767Z" fill="#8CC84B"/>
<path d="M674 506C696.091 506 714 488.091 714 466C714 443.909 696.091 426 674 426C651.909 426 634 443.909 634 466C634 488.091 651.909 506 674 506Z" fill="black"/>
<path d="M700.448 496.009L664.73 450H658V481.987H663.384V456.837L696.222 499.265C697.704 498.273 699.115 497.185 700.448 496.009Z" fill="url(#paint0_linear_509_103)"/>
<path d="M690.445 450H685.111V482H690.445V450Z" fill="url(#paint1_linear_509_103)"/>
<path d="M74.7519 292.249L39.5206 356.008C38.7931 357.324 36.9243 357.332 36.186 356.022L0.256253 292.255C-0.54824 290.827 0.657914 289.098 2.25635 289.387L37.5254 295.767C37.7505 295.808 37.9808 295.808 38.2057 295.766L72.7371 289.396C74.3303 289.103 75.542 290.818 74.7519 292.249V292.249Z" fill="url(#paint2_linear_509_103)"/>
<path d="M54.3257 281.019L28.2538 286.189C28.0455 286.23 27.8566 286.341 27.7169 286.502C27.5773 286.664 27.4946 286.868 27.4821 287.083L25.8784 314.496C25.8696 314.647 25.8955 314.797 25.9541 314.935C26.0128 315.074 26.1025 315.197 26.2161 315.294C26.3298 315.391 26.4643 315.46 26.6089 315.495C26.7536 315.531 26.9044 315.532 27.0494 315.498L34.3083 313.802C34.9874 313.644 35.6012 314.249 35.4614 314.94L33.3049 325.628C33.1599 326.348 33.8269 326.963 34.521 326.749L39.0046 325.371C39.6995 325.157 40.3675 325.774 40.2204 326.494L36.7933 343.282C36.5788 344.332 37.959 344.905 38.5344 344.005L38.919 343.404L60.164 300.494C60.52 299.775 59.9062 298.956 59.1269 299.108L51.6547 300.568C50.9528 300.705 50.3554 300.043 50.5535 299.348L55.4302 282.238C55.6286 281.541 55.0289 280.879 54.326 281.019H54.3257Z" fill="url(#paint3_linear_509_103)"/>
<path d="M205 601C194.333 601 187.667 606.333 185 616.999C189 611.666 193.667 609.667 199 610.999C202.043 611.76 204.218 613.968 206.626 616.412C210.547 620.393 215.086 624.999 225.001 624.999C235.667 624.999 242.334 619.666 245 608.999C241.001 614.333 236.334 616.333 231 615C227.958 614.24 225.783 612.031 223.375 609.588C219.453 605.607 214.914 601 205 601V601ZM185 624.999C174.334 624.999 167.666 630.333 165 641C169 635.666 173.666 633.666 179 635C182.042 635.761 184.217 637.969 186.625 640.411C190.547 644.392 195.086 649 205 649C215.667 649 222.334 643.667 225.001 633C221 638.333 216.333 640.333 211 639C207.957 638.24 205.782 636.031 203.374 633.588C199.453 629.607 194.914 624.999 185 624.999V624.999Z" fill="#06B6D4"/>
<g clip-path="url(#clip0_509_103)">
<path d="M208.711 36.4297L206.107 75.7422L182.099 24L208.711 36.4297ZM191.934 87.3047L174 97.7109L155.777 87.3047L159.248 78.3438H188.463L191.934 87.3047ZM174 43.6562L183.256 66.7812H164.455L174 43.6562ZM141.603 75.7422L139 36.4297L165.612 24L141.603 75.7422Z" fill="url(#paint4_linear_509_103)"/>
<path d="M208.711 36.4297L206.107 75.7422L182.099 24L208.711 36.4297ZM191.934 87.3047L174 97.7109L155.777 87.3047L159.248 78.3438H188.463L191.934 87.3047ZM174 43.6562L183.256 66.7812H164.455L174 43.6562ZM141.603 75.7422L139 36.4297L165.612 24L141.603 75.7422Z" fill="url(#paint5_linear_509_103)"/>
</g>
<path d="M209.046 385.295L206.971 384.465C197.221 406.404 158.432 393.066 156.098 399.593C155.709 404.001 177.28 400.431 192.702 401.178C197.404 401.406 199.763 404.956 197.766 410.742L201.699 410.754C206.236 396.61 220.716 403.829 221.321 399.161C220.327 396.091 204.68 399.161 209.046 385.295Z" fill="white"/>
<path d="M198.88 408.323C199.502 406.249 199.295 404.174 198.257 402.929C197.22 401.684 195.768 400.855 193.9 400.647L157.801 400.232C157.593 400.232 157.386 400.025 157.179 400.025C156.971 399.817 156.971 399.61 157.179 399.402C157.386 398.988 157.593 398.78 158.008 398.78L194.315 398.365C198.672 398.158 203.237 394.63 204.896 390.481L206.971 385.087C206.971 384.879 207.179 384.672 206.971 384.464C204.689 373.884 195.145 366 183.942 366C173.568 366 164.647 372.639 161.535 381.975C159.461 380.523 156.971 379.693 154.066 379.901C149.087 380.315 145.145 384.464 144.523 389.444C144.315 390.689 144.523 391.934 144.73 393.178C136.639 393.386 130 400.025 130 408.323C130 409.153 130 409.776 130.207 410.605C130.207 411.021 130.622 411.228 130.83 411.228H197.427C197.842 411.228 198.257 411.021 198.257 410.605L198.88 408.323Z" fill="#F4811F"/>
<path d="M210.291 385.087H209.253C209.046 385.087 208.838 385.294 208.631 385.502L207.179 390.481C206.556 392.556 206.764 394.631 207.801 395.875C208.838 397.12 210.291 397.95 212.158 398.158L219.834 398.573C220.041 398.573 220.249 398.78 220.457 398.78C220.664 398.988 220.664 399.195 220.457 399.402C220.249 399.818 220.042 400.025 219.627 400.025L211.743 400.44C207.386 400.647 202.822 404.174 201.162 408.323L200.747 410.191C200.539 410.398 200.747 410.813 201.162 410.813H228.548C228.963 410.813 229.17 410.606 229.17 410.191C229.585 408.531 230 406.664 230 404.797C230 394.008 221.079 385.087 210.291 385.087Z" fill="#FAAD3F"/>
<path fill-rule="evenodd" clip-rule="evenodd" d="M550.105 241C549.526 241 548.989 241.124 548.493 241.29C549.547 241.996 550.126 242.929 550.415 243.987C550.436 244.132 550.477 244.236 550.497 244.381C550.518 244.505 550.539 244.63 550.539 244.754C550.621 246.579 550.064 246.808 549.671 247.886C549.072 249.276 549.237 250.769 549.96 251.972C550.022 252.117 550.105 252.283 550.208 252.429C549.423 247.181 553.782 246.393 554.588 244.754C554.65 243.323 553.473 242.369 552.543 241.705C551.654 241.166 550.849 241 550.105 241ZM556.675 242.182C556.592 242.659 556.654 242.535 556.634 242.784C556.613 242.95 556.613 243.157 556.592 243.323C556.551 243.489 556.51 243.655 556.448 243.821C556.406 243.987 556.344 244.153 556.282 244.319C556.2 244.485 556.138 244.63 556.055 244.796C555.993 244.879 555.952 244.962 555.89 245.045C555.849 245.107 555.807 245.169 555.766 245.231C555.663 245.376 555.559 245.522 555.456 245.646C555.332 245.771 555.229 245.916 555.084 246.019V246.04C554.96 246.144 554.836 246.268 554.692 246.372C554.258 246.704 553.762 246.953 553.307 247.264C553.163 247.368 553.018 247.451 552.894 247.575C552.749 247.679 552.626 247.782 552.502 247.907C552.357 248.031 552.254 248.156 552.13 248.301C552.026 248.425 551.902 248.571 551.82 248.716C551.716 248.861 551.613 249.006 551.531 249.151C551.448 249.317 551.386 249.463 551.303 249.628C551.241 249.794 551.179 249.94 551.138 250.106C551.076 250.292 551.035 250.458 550.993 250.624C550.973 250.707 550.973 250.811 550.952 250.894C550.931 250.977 550.931 251.06 550.911 251.143C550.911 251.309 550.89 251.495 550.89 251.661C550.89 251.786 550.89 251.91 550.911 252.034C550.911 252.2 550.931 252.366 550.973 252.553C550.993 252.719 551.035 252.885 551.076 253.051C551.138 253.217 551.179 253.383 551.241 253.549C551.283 253.652 551.345 253.756 551.386 253.839L546.634 251.993C545.828 251.765 545.043 251.557 544.238 251.371C543.804 251.267 543.37 251.163 542.936 251.06C541.696 250.811 540.436 250.624 539.176 250.5C539.135 250.5 539.114 250.479 539.073 250.479C537.833 250.354 536.614 250.292 535.374 250.292C534.465 250.292 533.556 250.334 532.668 250.396C531.408 250.479 530.147 250.645 528.887 250.852C528.577 250.894 528.267 250.956 527.957 251.018C527.317 251.143 526.697 251.288 526.098 251.433C525.788 251.516 525.478 251.599 525.168 251.682C524.858 251.806 524.569 251.951 524.28 252.076C524.053 252.18 523.825 252.283 523.598 252.387C523.557 252.408 523.515 252.408 523.495 252.429C523.288 252.532 523.102 252.615 522.916 252.719C522.854 252.74 522.813 252.76 522.772 252.781C522.544 252.885 522.317 253.009 522.131 253.113C521.987 253.175 521.842 253.258 521.718 253.32C521.656 253.362 521.573 253.403 521.532 253.424C521.346 253.528 521.16 253.632 520.995 253.735C520.809 253.839 520.644 253.943 520.499 254.046C520.354 254.15 520.21 254.233 520.086 254.337C520.065 254.357 520.045 254.357 520.024 254.378C519.9 254.461 519.755 254.565 519.631 254.669C519.631 254.669 519.611 254.689 519.59 254.71C519.487 254.793 519.383 254.876 519.28 254.959C519.239 254.98 519.198 255.021 519.156 255.042C519.053 255.125 518.95 255.229 518.846 255.312C518.826 255.353 518.784 255.374 518.764 255.395C518.64 255.519 518.516 255.623 518.392 255.747C518.371 255.747 518.371 255.768 518.35 255.789C518.227 255.892 518.103 256.017 517.979 256.141C517.958 256.162 517.958 256.183 517.937 256.183C517.834 256.286 517.731 256.39 517.627 256.515C517.586 256.556 517.524 256.598 517.483 256.639C517.379 256.763 517.256 256.888 517.132 257.012C517.111 257.054 517.07 257.075 517.049 257.116C516.884 257.282 516.739 257.448 516.574 257.614C516.553 257.635 516.532 257.655 516.512 257.676C516.181 258.029 515.83 258.381 515.458 258.692C515.086 259.024 514.694 259.335 514.301 259.605C513.888 259.895 513.495 260.144 513.061 260.393C512.648 260.621 512.214 260.829 511.76 261.015C511.326 261.202 510.872 261.368 510.417 261.513C509.549 261.7 508.661 262.052 507.896 262.115C507.731 262.115 507.545 262.156 507.38 262.177C507.194 262.218 507.029 262.26 506.863 262.301C506.698 262.364 506.533 262.426 506.368 262.488C506.202 262.55 506.037 262.633 505.872 262.716C505.727 262.82 505.562 262.903 505.417 263.007C505.273 263.11 505.128 263.235 505.004 263.359C504.859 263.463 504.715 263.608 504.591 263.733C504.467 263.878 504.343 264.002 504.24 264.147C504.136 264.313 504.012 264.459 503.93 264.624C503.826 264.77 503.723 264.936 503.64 265.101C503.558 265.288 503.475 265.454 503.413 265.641C503.351 265.807 503.289 265.993 503.227 266.18C503.186 266.346 503.145 266.512 503.124 266.678C503.124 266.699 503.103 266.719 503.103 266.74C503.062 266.927 503.062 267.176 503.041 267.3C503.021 267.445 503 267.57 503 267.715C503 267.798 503 267.902 503.021 267.985C503.041 268.13 503.062 268.254 503.103 268.379C503.145 268.503 503.186 268.628 503.248 268.752V268.773C503.31 268.897 503.393 269.022 503.475 269.146C503.558 269.271 503.641 269.395 503.744 269.519C503.847 269.623 503.971 269.748 504.095 269.851C504.219 269.976 504.343 270.079 504.488 270.183C504.983 270.619 505.107 270.764 505.748 271.096C505.851 271.158 505.954 271.2 506.078 271.262C506.099 271.262 506.12 271.283 506.14 271.283C506.14 271.324 506.14 271.345 506.161 271.386C506.182 271.552 506.223 271.718 506.264 271.884C506.306 272.071 506.368 272.237 506.43 272.382C506.492 272.506 506.533 272.631 506.595 272.755C506.616 272.797 506.636 272.838 506.657 272.859C506.74 273.025 506.822 273.17 506.905 273.315C507.008 273.46 507.111 273.606 507.215 273.751C507.318 273.875 507.442 274.02 507.566 274.145C507.69 274.269 507.814 274.373 507.959 274.497C507.959 274.497 507.979 274.518 508 274.518C508.124 274.622 508.248 274.726 508.372 274.809C508.516 274.912 508.661 274.995 508.826 275.078C508.971 275.161 509.136 275.244 509.301 275.306C509.425 275.369 509.57 275.41 509.715 275.452C509.735 275.472 509.756 275.472 509.797 275.493C509.88 275.514 509.983 275.535 510.066 275.555C510.004 276.675 509.983 277.733 510.149 278.106C510.334 278.521 511.244 277.256 512.153 275.804C512.029 277.235 511.946 278.915 512.153 279.413C512.38 279.932 513.619 278.314 514.694 276.53C529.342 273.129 542.709 283.292 544.114 297.645C543.845 295.405 541.097 294.16 539.837 294.471C539.217 296.006 538.164 297.977 536.47 299.201C536.614 297.832 536.552 296.421 536.263 295.052C535.808 296.96 534.92 298.744 533.701 300.279C531.738 300.424 529.776 299.47 528.743 298.039C528.66 297.977 528.639 297.852 528.577 297.769C528.515 297.624 528.453 297.479 528.412 297.334C528.35 297.189 528.309 297.043 528.288 296.898C528.267 296.753 528.267 296.608 528.267 296.442C528.267 296.338 528.267 296.235 528.267 296.131C528.288 295.986 528.329 295.84 528.371 295.695C528.412 295.55 528.453 295.405 528.515 295.26C528.598 295.114 528.66 294.969 528.763 294.824C529.114 293.829 529.114 293.02 528.474 292.543C528.35 292.46 528.226 292.397 528.081 292.335C527.999 292.314 527.896 292.273 527.813 292.252C527.751 292.231 527.71 292.211 527.648 292.19C527.503 292.148 527.358 292.107 527.214 292.086C527.069 292.045 526.925 292.024 526.78 292.024C526.635 292.003 526.47 291.983 526.325 291.983C526.222 291.983 526.119 292.003 526.015 292.003C525.85 292.003 525.706 292.024 525.561 292.066C525.416 292.086 525.272 292.107 525.127 292.148C524.982 292.19 524.838 292.231 524.693 292.294C524.549 292.356 524.425 292.418 524.28 292.48C524.156 292.543 524.032 292.626 523.887 292.688C519.074 295.84 521.945 303.224 525.23 305.361C523.991 305.589 522.731 305.859 522.379 306.128C522.359 306.149 522.338 306.17 522.338 306.17C523.226 306.709 524.156 307.165 525.127 307.559C526.449 307.995 527.854 308.389 528.474 308.555V308.576C530.189 308.928 531.924 309.053 533.68 308.949C542.833 308.306 550.332 301.316 551.696 292.107C551.737 292.294 551.779 292.46 551.82 292.646C551.882 293.02 551.965 293.414 552.006 293.808V293.829C552.047 294.015 552.068 294.202 552.089 294.368V294.451C552.109 294.638 552.13 294.824 552.13 294.99C552.151 295.218 552.171 295.446 552.171 295.675V296.006C552.171 296.11 552.192 296.235 552.192 296.338C552.192 296.463 552.171 296.587 552.171 296.712V297.002C552.171 297.147 552.15 297.272 552.15 297.417C552.15 297.5 552.15 297.583 552.13 297.687C552.13 297.832 552.109 297.977 552.109 298.143C552.088 298.205 552.088 298.267 552.088 298.33C552.068 298.495 552.047 298.641 552.026 298.807C552.026 298.869 552.026 298.931 552.006 298.993C551.985 299.201 551.944 299.387 551.923 299.595V299.616V299.636C551.882 299.823 551.84 300.03 551.799 300.217V300.279C551.758 300.466 551.716 300.653 551.675 300.839C551.675 300.86 551.654 300.902 551.654 300.922C551.613 301.109 551.572 301.296 551.51 301.482V301.545C551.448 301.752 551.386 301.939 551.345 302.125C551.324 302.146 551.324 302.167 551.324 302.167C551.262 302.374 551.2 302.582 551.138 302.789C551.055 302.996 550.993 303.183 550.911 303.391C550.828 303.598 550.766 303.805 550.683 303.992C550.601 304.199 550.518 304.386 550.435 304.594H550.415C550.332 304.78 550.249 304.988 550.146 305.174C550.125 305.237 550.105 305.278 550.084 305.319C550.063 305.34 550.063 305.361 550.043 305.382C548.7 308.099 546.717 310.484 544.237 312.351C544.072 312.455 543.907 312.579 543.742 312.703C543.7 312.745 543.638 312.766 543.597 312.807C543.452 312.911 543.308 313.015 543.142 313.118L543.204 313.243H543.225C543.514 313.201 543.804 313.16 544.093 313.118H544.113C544.651 313.035 545.188 312.932 545.725 312.828C545.87 312.807 546.035 312.766 546.18 312.724C546.283 312.703 546.365 312.683 546.469 312.662C546.613 312.641 546.758 312.6 546.903 312.579C547.027 312.538 547.151 312.517 547.275 312.475C549.341 311.977 551.345 311.293 553.266 310.484C549.981 314.985 545.58 318.615 540.436 321C542.812 320.834 545.188 320.44 547.481 319.776C555.807 317.308 562.811 311.687 567.005 304.116C566.158 308.908 564.257 313.471 561.447 317.453C563.451 316.126 565.29 314.591 566.964 312.849C571.591 307.995 574.629 301.835 575.662 295.218C576.364 298.496 576.571 301.876 576.261 305.216C591.177 284.329 577.5 262.675 571.777 256.971C571.757 256.93 571.736 256.909 571.736 256.867C571.715 256.888 571.715 256.888 571.715 256.909C571.715 256.888 571.715 256.888 571.695 256.867C571.695 257.116 571.674 257.365 571.653 257.614C571.591 258.091 571.529 258.547 571.447 259.004C571.344 259.46 571.22 259.916 571.096 260.373C570.951 260.808 570.786 261.265 570.6 261.7C570.414 262.115 570.207 262.551 569.98 262.965C569.753 263.359 569.505 263.774 569.236 264.148C568.968 264.542 568.678 264.915 568.389 265.268C568.079 265.641 567.749 265.973 567.418 266.305C567.211 266.491 567.026 266.657 566.819 266.823C566.654 266.968 566.509 267.093 566.344 267.238C565.972 267.529 565.6 267.798 565.187 268.047C564.794 268.296 564.381 268.545 563.968 268.752C563.534 268.96 563.1 269.146 562.666 269.333C562.232 269.499 561.778 269.644 561.323 269.769C560.869 269.893 560.394 269.997 559.939 270.08C559.464 270.163 558.989 270.204 558.534 270.246C558.204 270.266 557.873 270.287 557.543 270.287C557.067 270.287 556.592 270.246 556.138 270.204C555.662 270.163 555.187 270.1 554.733 269.997C554.258 269.914 553.803 269.789 553.349 269.644H553.328C553.782 269.603 554.237 269.561 554.691 269.478C555.167 269.395 555.621 269.291 556.076 269.167C556.53 269.043 556.985 268.897 557.419 268.731C557.873 268.566 558.307 268.358 558.72 268.151C559.154 267.943 559.547 267.715 559.96 267.466C560.352 267.197 560.745 266.927 561.117 266.637C561.489 266.346 561.84 266.035 562.17 265.703C562.522 265.392 562.832 265.039 563.141 264.687C563.451 264.314 563.741 263.94 564.009 263.567C564.05 263.505 564.092 263.422 564.133 263.359C564.34 263.028 564.546 262.696 564.732 262.364C564.96 261.949 565.166 261.534 565.352 261.099C565.538 260.663 565.703 260.227 565.848 259.771C565.993 259.336 566.096 258.879 566.199 258.423C566.282 257.946 566.364 257.49 566.406 257.033C566.447 256.556 566.488 256.079 566.488 255.623C566.488 255.291 566.468 254.959 566.447 254.627C566.406 254.15 566.344 253.694 566.282 253.238C566.199 252.761 566.096 252.304 565.972 251.848C565.827 251.412 565.683 250.956 565.517 250.52C565.352 250.085 565.146 249.649 564.939 249.234C564.712 248.82 564.484 248.405 564.236 248.011C563.968 247.617 563.699 247.243 563.41 246.87C563.1 246.517 562.79 246.165 562.46 245.812C562.294 245.646 562.108 245.46 561.923 245.294C560.993 244.568 560.022 243.883 559.051 243.261C558.906 243.178 558.782 243.116 558.638 243.054C557.956 242.618 557.315 242.39 556.675 242.182Z" fill="#E0234E"/>
<path d="M333 297H402V366H333V297Z" fill="#017ACB"/>
<path d="M366.131 322.552H369.441V328.266H360.492V353.688L360.255 353.753C359.932 353.839 355.673 353.839 354.757 353.742L354.023 353.677V328.266H345.075V322.552L347.91 322.519C349.463 322.498 353.452 322.498 356.773 322.519C360.093 322.541 364.298 322.552 366.131 322.552V322.552ZM391.391 350.993C390.076 352.383 388.664 353.16 386.313 353.796C385.289 354.076 385.117 354.087 382.809 354.076C380.502 354.065 380.319 354.065 379.198 353.774C376.298 353.03 373.958 351.575 372.362 349.515C371.91 348.933 371.166 347.726 371.166 347.575C371.166 347.532 371.273 347.435 371.414 347.37C371.554 347.305 371.845 347.122 372.082 346.982C372.319 346.842 372.75 346.583 373.042 346.432C373.333 346.281 374.174 345.785 374.907 345.343C375.64 344.901 376.308 344.545 376.384 344.545C376.459 344.545 376.599 344.696 376.707 344.88C377.354 345.968 378.863 347.359 379.931 347.834C380.588 348.114 382.044 348.427 382.745 348.427C383.392 348.427 384.578 348.146 385.214 347.855C385.893 347.543 386.238 347.23 386.648 346.605C386.928 346.163 386.96 346.044 386.949 345.203C386.949 344.427 386.906 344.211 386.691 343.855C386.087 342.863 385.268 342.346 381.947 340.88C378.518 339.36 376.977 338.454 375.726 337.236C374.799 336.33 374.616 336.082 374.033 334.95C373.279 333.495 373.182 333.02 373.171 330.853C373.16 329.333 373.192 328.837 373.354 328.32C373.581 327.543 374.314 326.045 374.648 325.667C375.338 324.859 375.586 324.611 376.071 324.212C377.537 323.004 379.823 322.207 382.012 322.131C382.26 322.131 383.079 322.174 383.844 322.228C386.044 322.411 387.542 322.95 388.987 324.104C390.076 324.967 391.725 326.993 391.564 327.263C391.456 327.425 387.154 330.293 386.874 330.379C386.701 330.433 386.583 330.368 386.346 330.088C384.879 328.33 384.286 327.953 382.863 327.867C381.85 327.802 381.311 327.921 380.632 328.373C379.92 328.848 379.575 329.57 379.575 330.573C379.586 332.039 380.146 332.729 382.216 333.753C383.553 334.411 384.696 334.95 384.782 334.95C384.912 334.95 387.683 336.33 388.405 336.761C391.769 338.734 393.138 340.761 393.494 344.254C393.752 346.885 393.008 349.289 391.391 350.993V350.993Z" fill="white"/>
<path d="M466.491 502.436L431.563 467.509C429.552 465.497 426.29 465.497 424.277 467.509L417.024 474.762L426.225 483.963C428.363 483.241 430.815 483.725 432.519 485.43C434.232 487.145 434.713 489.618 433.973 491.763L442.84 500.631C444.985 499.891 447.461 500.37 449.174 502.086C451.569 504.48 451.569 508.359 449.174 510.755C446.779 513.15 442.899 513.15 440.503 510.755C438.701 508.952 438.256 506.306 439.168 504.087L430.899 495.818L430.898 517.58C431.497 517.876 432.045 518.268 432.519 518.739C434.914 521.133 434.914 525.013 432.519 527.41C430.124 529.805 426.242 529.805 423.85 527.41C421.456 525.013 421.456 521.133 423.85 518.739C424.424 518.165 425.106 517.71 425.857 517.402V495.437C425.105 495.13 424.423 494.675 423.85 494.099C422.036 492.287 421.6 489.625 422.529 487.397L413.459 478.326L389.509 502.275C387.497 504.288 387.497 507.551 389.509 509.563L424.439 544.491C426.45 546.503 429.712 546.503 431.725 544.491L466.491 509.725C468.503 507.713 468.503 504.448 466.491 502.436Z" fill="#DE4C36"/>
<defs>
<linearGradient id="paint0_linear_509_103" x1="682.444" y1="477.778" x2="698.222" y2="497.333" gradientUnits="userSpaceOnUse">
<stop stop-color="white"/>
<stop offset="1" stop-color="white" stop-opacity="0"/>
</linearGradient>
<linearGradient id="paint1_linear_509_103" x1="687.778" y1="450" x2="687.689" y2="473.5" gradientUnits="userSpaceOnUse">
<stop stop-color="white"/>
<stop offset="1" stop-color="white" stop-opacity="0"/>
</linearGradient>
<linearGradient id="paint2_linear_509_103" x1="-0.621" y1="294.532" x2="37.9684" y2="346.315" gradientUnits="userSpaceOnUse">
<stop stop-color="#41D1FF"/>
<stop offset="1" stop-color="#BD34FE"/>
</linearGradient>
<linearGradient id="paint3_linear_509_103" x1="40.7941" y1="282.423" x2="48.7964" y2="336.662" gradientUnits="userSpaceOnUse">
<stop stop-color="#FFEA83"/>
<stop offset="0.083" stop-color="#FFDD35"/>
<stop offset="1" stop-color="#FFA800"/>
</linearGradient>
<linearGradient id="paint4_linear_509_103" x1="154.388" y1="91.0336" x2="209.854" y2="64.6423" gradientUnits="userSpaceOnUse">
<stop stop-color="#E40035"/>
<stop offset="0.2" stop-color="#F60A48"/>
<stop offset="0.4" stop-color="#F20755"/>
<stop offset="0.5" stop-color="#DC087D"/>
<stop offset="0.7" stop-color="#9717E7"/>
<stop offset="1" stop-color="#6C00F5"/>
</linearGradient>
<linearGradient id="paint5_linear_509_103" x1="151.872" y1="32.8742" x2="188.146" y2="74.321" gradientUnits="userSpaceOnUse">
<stop stop-color="#FF31D9"/>
<stop offset="1" stop-color="#FF5BE1" stop-opacity="0"/>
</linearGradient>
<clipPath id="clip0_509_103">
<rect width="70" height="74" fill="white" transform="translate(139 24)"/>
</clipPath>
</defs>
</svg>
