<svg width="1920" height="1080" viewBox="0 0 1920 1080" fill="none" xmlns="http://www.w3.org/2000/svg">
<path d="M1920 1080H0V0H1920V1080ZM1015.01 481.665C1011.48 478.132 1005.68 478.123 1002.11 481.695C998.509 485.292 998.522 491.044 1002.08 494.6L1047.38 539.903L1002.08 585.209C998.544 588.743 998.535 594.541 1002.11 598.114C1005.7 601.71 1011.46 601.7 1015.01 598.144L1066.81 546.343C1068.58 544.581 1069.46 542.255 1069.46 539.924C1069.48 537.558 1068.59 535.24 1066.81 533.467L1015.01 481.665ZM917.356 481.698C913.76 478.1 908.008 478.112 904.452 481.667L852.65 533.47C850.889 535.231 850.003 537.556 850 539.888C849.985 542.253 850.877 544.572 852.65 546.345L904.452 598.146C907.985 601.677 913.784 601.689 917.356 598.116C920.953 594.52 920.943 588.767 917.388 585.212L872.082 539.903L917.388 494.603C920.921 491.069 920.929 485.269 917.356 481.698ZM967.87 484.44L937.87 595.895H947.688L977.688 484.44H967.87Z" fill="#1E1E1E"/>
</svg>
