<svg width="835" height="294" viewBox="0 0 835 294" fill="none" xmlns="http://www.w3.org/2000/svg">
<g clip-path="url(#clip0_407_106)">
<path d="M315.286 0L150.3 293.731H0L128.811 64.386C148.802 28.812 198.632 0 240.136 0H315.286ZM683.865 73.4265C683.865 32.879 717.511 0 759.015 0C800.519 0 834.165 32.879 834.165 73.4265C834.165 113.998 800.519 146.877 759.015 146.877C717.511 146.877 683.865 113.998 683.865 73.4265ZM343.455 0H493.755L328.769 293.731H178.469L343.455 0ZM520.991 0H671.291L542.455 229.369C522.489 264.919 472.659 293.731 431.155 293.731H356.005L520.991 0Z" fill="#0B1012"/>
</g>
<defs>
<clipPath id="clip0_407_106">
<rect width="835" height="294" fill="white"/>
</clipPath>
</defs>
</svg>
